<?xml version="1.0" encoding="UTF-8"?>
<svg xmlns="http://www.w3.org/2000/svg" version="1.1" viewBox="0 0 225 225">
  <!-- Generator: Adobe Illustrator 29.7.1, SVG Export Plug-In . SVG Version: 2.1.1 Build 8)  -->
  <defs>
    <style>
      .st0 {
        fill: none;
        stroke: #fbb040;
        stroke-miterlimit: 10;
      }

      .st1 {
        fill: #fbb040;
      }

      .st2 {
        fill: #2e083b;
      }
    </style>
  </defs>
  <g id="Circle">
    <path class="st2" d="M112.5,42.5c-41.4,0-75,31.3-75,70s33.6,70,75,70,75-31.3,75-70-33.6-70-75-70ZM112.5,177.5c-34.5,0-62.5-29.1-62.5-65s28-65,62.5-65,62.5,29.1,62.5,65-28,65-62.5,65Z"/>
    <ellipse class="st0" cx="112.5" cy="112.5" rx="68.8" ry="67.5"/>
  </g>
  <g id="Cross-part">
    <path class="st2" d="M126.9,120.5c.7,36.4,6.6,69,15.5,92h-59.8c8.9-23,14.8-55.6,15.5-92.1,0-1.6,1.4-2.9,3-2.9h22.8c1.6,0,3,1.3,3,3Z"/>
    <path class="st2" d="M98.1,104.5c-.7-36.4-6.6-69-15.5-92h59.8c-8.9,23-14.8,55.6-15.5,92,0,1.6-1.4,3-3,3h-22.8c-1.6,0-3-1.3-3-3Z"/>
    <g>
      <path class="st1" d="M112.6,137.5s.5,10.5.5,10.5c.4,3.5.8,6.9,1.2,10.4.3,1.7,1.1,6,1.4,7.7,2.4,10.9,6.6,21.7,12.7,31.1,3.8,5.7,8.2,11.2,13.9,15.2,0,0,0,.2,0,.2-4.8-2.3-8.8-6.1-12.3-10.1-5.8-6.7-9.6-15-12.3-23.4-1-2.9-2.1-7.2-2.7-10.2-.4-1.5-.7-3.6-1-5.2-1.5-8.1-1.8-18-1.8-26.2,0,0,.2,0,.2,0h0Z"/>
      <path class="st1" d="M112.6,137.5v10.5c-.4,3.5-.6,7-1,10.5-.5,3-1,7.5-1.8,10.4-2.6,12-6.9,24.1-15,33.6-3.5,4-7.4,7.7-12.3,10.1,0,0,0-.2,0-.2,5.7-4,10.1-9.5,13.9-15.2,6.1-9.4,10.3-20.2,12.7-31.1.3-1.7,1.1-6,1.4-7.7.5-3.5.8-6.9,1.2-10.4l.5-10.5h.2Z"/>
    </g>
    <g>
      <path class="st1" d="M112.4,87.5s.1-10.5.1-10.5c.3-3.5.5-7,.9-10.5.5-3,1-7.5,1.8-10.4,2.6-12,6.9-24.1,15-33.6,3.5-4,7.4-7.7,12.3-10.1,0,0,0,.2,0,.2-5.7,4-10.1,9.5-13.9,15.2-6.1,9.4-10.3,20.2-12.7,31.1-.3,1.7-1.1,6-1.4,7.7-.5,3.5-.8,6.9-1.2,10.4,0,0-.5,10.5-.5,10.5h-.2Z"/>
      <path class="st1" d="M112.4,87.5s-.5-10.5-.5-10.5c-.4-3.5-.8-6.9-1.2-10.4-.3-1.7-1.1-6-1.4-7.7-2.4-10.9-6.6-21.7-12.7-31.1-3.8-5.7-8.2-11.2-13.9-15.2,0,0,0-.2,0-.2,4.8,2.3,8.8,6.1,12.3,10.1,5.8,6.7,9.6,15,12.3,23.4,1,2.9,2.1,7.2,2.7,10.2.4,1.5.7,3.6,1,5.2,1.5,8.1,1.8,18,1.8,26.2,0,0-.2,0-.2,0h0Z"/>
    </g>
  </g>
  <g id="horns">
    <path class="st2" d="M153.9,112.5c0,17.2-6.9,32.4-17.5,41.4,4.4-10.4,7.2-24,7.5-38.9h-62.7c.3,14.9,3.1,28.4,7.5,38.9-10.6-9-17.5-24.2-17.5-41.4s6.9-32.4,17.5-41.4c-4.4,10.4-7.2,24-7.5,38.9h62.7c-.3-14.9-3.1-28.4-7.5-38.8,10.6,9,17.5,24.2,17.5,41.3Z"/>
    <path class="st1" d="M88.6,71.1c-11.7,18.8-16.1,41.6-9.3,63,2.1,7,5.2,13.7,9.3,19.8-4.5-5.8-7.8-12.5-10.1-19.5-7.2-21.5-2.7-44.8,10.1-63.2h0Z"/>
    <path class="st1" d="M136.4,71.1c8.4,12.1,13.4,26.6,13.3,41.4-.1,14.7-4.7,29.5-13.3,41.4,2-3,3.8-6.3,5.3-9.6,11.2-24.1,8.8-50.8-5.3-73.1h0Z"/>
    <line class="st0" x1="75.5" y1="112.5" x2="149.5" y2="112.5"/>
  </g>
</svg>